<?xml version="1.0" standalone="no"?>
<!DOCTYPE svg PUBLIC "-//W3C//DTD SVG 20010904//EN"
 "http://www.w3.org/TR/2001/REC-SVG-20010904/DTD/svg10.dtd">
<svg version="1.0" xmlns="http://www.w3.org/2000/svg"
 width="3001.000000pt" height="3001.000000pt" viewBox="0 0 3001.000000 3001.000000"
 preserveAspectRatio="xMidYMid meet">
<metadata>
Created by potrace 1.11, written by Peter Selinger 2001-2013
</metadata>
<g transform="translate(0.000000,3001.000000) scale(0.100000,-0.100000)"
fill="#000000" stroke="none">
<path d="M10569 29788 c-11 -5 -17 -13 -13 -19 4 -7 0 -9 -13 -5 -17 5 -24 -2
-41 -41 -37 -87 -45 -134 -42 -258 6 -289 5 -414 -5 -423 -5 -5 -46 -12 -90
-16 -44 -3 -94 -10 -111 -15 -66 -19 -144 -70 -144 -95 0 -6 15 -49 33 -95 37
-95 26 -88 164 -96 101 -5 155 -22 172 -53 33 -62 67 -303 65 -457 -2 -170
-13 -257 -38 -295 -30 -46 -84 -110 -155 -185 -168 -178 -240 -282 -280 -405
-41 -123 -26 -179 78 -293 33 -36 65 -75 70 -86 10 -17 34 -111 57 -216 3 -16
8 -87 11 -158 l5 -127 -38 -36 c-22 -20 -104 -86 -183 -146 -209 -161 -294
-251 -343 -366 -11 -26 -26 -61 -34 -78 -16 -37 -40 -139 -49 -209 -18 -150
-41 -229 -81 -282 -26 -35 -40 -42 -41 -20 0 6 -8 53 -16 102 -9 50 -19 110
-22 135 -3 25 -8 56 -11 70 -2 14 -6 41 -8 60 -2 19 -6 53 -10 75 -3 22 -12
90 -21 150 -9 61 -20 135 -25 165 -6 30 -13 69 -16 85 -9 52 -52 218 -69 270
-27 77 -67 128 -167 208 l-46 38 -46 -90 c-59 -119 -124 -322 -150 -471 -2
-14 -7 -36 -10 -50 -6 -24 -10 -50 -22 -120 -3 -19 -7 -37 -9 -40 -3 -5 -25
-128 -41 -225 -2 -16 -9 -55 -14 -85 -5 -30 -12 -75 -15 -100 -3 -25 -7 -56
-10 -70 -12 -64 -20 -200 -19 -355 1 -272 20 -906 29 -990 3 -22 7 -350 9
-730 3 -379 8 -843 11 -1030 l6 -340 -28 -13 c-63 -28 -155 -137 -174 -205
-21 -80 -20 -92 14 -125 18 -17 64 -46 102 -64 l70 -34 -1 -99 c0 -88 -8 -276
-19 -460 -5 -86 -15 -678 -20 -1200 -4 -407 -11 -692 -20 -815 -1 -25 -6 -106
-10 -180 -3 -74 -8 -157 -10 -185 -2 -27 -7 -104 -10 -170 -3 -66 -8 -138 -10
-160 -2 -22 -7 -92 -10 -155 -4 -63 -8 -135 -10 -160 -1 -25 -6 -97 -10 -160
-4 -63 -9 -135 -10 -160 -5 -74 -16 -231 -20 -290 -2 -30 -7 -100 -11 -155 -3
-55 -8 -116 -9 -135 -2 -19 -6 -82 -10 -140 -4 -58 -8 -121 -10 -140 -2 -19
-6 -143 -9 -275 -13 -515 -17 -661 -21 -690 -12 -77 -27 -1100 -29 -1930 -1
-647 -3 -629 86 -825 l30 -64 53 55 c93 96 162 252 180 406 3 27 7 64 10 83 3
19 7 58 10 85 3 28 7 61 10 75 2 14 6 54 10 90 3 36 8 76 10 90 6 32 12 81 25
205 6 55 13 116 15 135 2 19 7 60 10 90 3 30 8 71 10 90 5 43 13 117 20 190 3
30 7 71 10 90 2 19 7 62 10 95 3 33 10 96 15 140 5 44 12 109 15 145 3 36 7
81 10 100 3 31 11 106 20 210 2 19 6 58 9 85 3 28 8 79 12 115 3 36 7 76 9 90
2 14 6 59 10 100 4 41 8 86 10 100 1 14 6 59 9 100 4 41 9 91 11 110 3 19 7
64 11 100 3 36 7 76 9 90 1 14 6 57 9 95 4 39 8 86 11 105 2 19 6 60 9 90 3
30 8 80 11 110 3 30 10 96 15 145 5 50 12 110 14 135 14 133 17 168 21 196 2
16 7 59 10 95 4 35 8 75 11 89 2 14 6 52 9 85 3 33 8 69 10 80 2 11 4 27 4 35
1 13 12 15 59 13 50 -3 284 -26 382 -39 19 -2 242 -4 496 -4 l461 -1 55 -101
c36 -68 61 -102 74 -104 10 -2 48 -6 84 -10 l65 -6 28 108 c16 60 30 110 32
112 2 2 23 8 47 14 24 5 54 12 68 16 71 16 144 7 227 -31 57 -26 89 -36 106
-31 40 9 93 70 123 139 l28 64 75 27 c42 15 122 47 179 70 99 42 102 43 103
21 0 -12 2 -29 4 -38 1 -9 6 -61 10 -115 4 -54 9 -115 10 -134 1 -19 6 -80 10
-135 3 -55 8 -126 10 -159 5 -67 12 -176 20 -291 3 -44 8 -109 10 -145 5 -61
7 -98 20 -310 3 -47 7 -112 10 -145 2 -33 7 -100 10 -150 4 -49 8 -112 10
-140 3 -27 7 -88 10 -135 3 -47 8 -107 10 -135 2 -27 6 -90 10 -140 3 -49 8
-106 10 -125 3 -19 7 -69 10 -110 3 -41 7 -91 10 -110 2 -19 7 -71 10 -115 3
-44 7 -91 10 -105 2 -14 7 -59 10 -100 4 -41 8 -86 10 -100 2 -14 6 -54 10
-90 3 -36 8 -81 10 -100 3 -19 7 -60 10 -90 3 -30 7 -66 10 -80 2 -14 7 -50
10 -80 5 -50 11 -93 20 -160 2 -14 9 -63 15 -110 6 -47 13 -97 16 -112 2 -16
6 -40 8 -55 12 -75 19 -120 22 -137 2 -10 6 -44 9 -75 13 -117 41 -186 106
-256 56 -61 126 -89 205 -82 75 6 116 33 170 114 57 86 83 168 105 333 11 79
7 667 -6 835 -20 279 -23 337 -30 580 -3 110 -8 225 -10 255 -2 30 -7 105 -10
165 -4 61 -8 130 -10 155 -2 25 -6 88 -10 140 -3 52 -8 115 -10 140 -2 25 -7
83 -10 130 -3 47 -8 103 -9 125 -2 22 -7 92 -10 155 -12 199 -14 215 -36 420
-6 52 -13 119 -15 148 -3 28 -7 78 -10 110 -3 31 -8 89 -11 127 -2 39 -7 91
-9 117 -4 45 -9 173 -20 463 -3 72 -7 141 -9 155 -6 34 -15 220 -21 430 -8
266 -21 527 -30 580 -3 14 -7 104 -10 200 -15 470 -23 672 -30 715 -27 173
-32 1048 -21 3767 l4 1097 21 27 c12 15 48 47 81 71 55 41 100 97 108 133 27
131 -15 206 -165 293 l-73 42 -1 45 c0 25 -2 79 -4 120 -2 41 -6 143 -10 225
-7 149 -8 177 -20 350 -9 134 -14 191 -31 333 -12 106 -46 321 -60 384 -20 88
-68 160 -151 225 l-66 52 -50 -62 c-59 -74 -84 -124 -92 -192 -4 -28 -9 -61
-11 -75 -5 -22 -9 -196 -16 -600 -1 -68 -5 -146 -9 -172 -4 -26 -10 -101 -14
-165 -8 -165 -15 -261 -21 -313 -6 -50 -23 -120 -29 -120 -4 0 -36 144 -60
275 -22 119 -49 187 -101 261 -79 112 -168 182 -404 319 -192 111 -247 151
-258 189 -14 47 -13 79 4 158 8 40 17 100 20 132 6 72 27 121 99 236 86 137
102 198 79 309 -51 245 -244 478 -496 600 -48 22 -48 23 -49 74 -5 217 3 475
15 496 2 3 7 27 10 52 8 60 35 149 44 147 9 -3 115 9 216 24 l79 12 -7 120
c-4 66 -10 124 -14 128 -13 12 -166 30 -313 37 -22 1 -27 7 -32 34 -3 17 -13
70 -21 117 -19 105 -34 239 -41 348 -5 83 -27 151 -78 240 -19 32 -21 33 -79
30 -32 -2 -68 -6 -79 -10z m234 -2320 c24 -29 69 -91 100 -138 l56 -84 -24
-31 c-47 -56 -72 -100 -96 -165 -24 -66 -27 -138 -17 -440 1 -52 -10 -168 -18
-181 -9 -15 -19 -120 -18 -191 1 -65 6 -87 32 -141 40 -81 124 -172 265 -289
211 -173 290 -262 360 -403 33 -66 77 -192 77 -220 0 -9 -24 -15 -72 -20 -40
-4 -80 -9 -88 -10 -8 -1 -55 -6 -104 -10 -50 -4 -97 -8 -105 -10 -9 -1 -43 -6
-76 -9 -62 -7 -102 -13 -145 -21 -14 -3 -41 -7 -60 -10 -19 -4 -80 -17 -135
-30 -148 -35 -159 -36 -295 -40 -125 -3 -277 13 -332 36 -63 26 -108 96 -110
172 -3 90 76 343 154 492 63 121 94 154 263 274 158 113 208 173 215 257 2 27
4 209 4 404 0 402 6 371 -90 506 -24 34 -44 65 -44 68 0 13 115 181 145 212
28 30 92 74 107 74 3 0 26 -24 51 -52z m1312 -2750 c-2 -7 -6 -26 -9 -43 -3
-16 -16 -91 -29 -165 -14 -74 -27 -153 -30 -175 -4 -22 -8 -56 -11 -75 -10
-63 -25 -194 -31 -255 -3 -33 -8 -76 -10 -95 -3 -19 -7 -69 -10 -110 -2 -41
-7 -100 -10 -130 -3 -30 -7 -91 -10 -135 -2 -44 -7 -114 -9 -155 -3 -41 -8
-129 -11 -195 -10 -179 -14 -244 -20 -305 -11 -118 -14 -160 -20 -285 -3 -71
-7 -174 -10 -229 -2 -54 -6 -100 -7 -101 -2 -2 -21 -5 -43 -9 -22 -3 -61 -8
-87 -12 l-48 -7 -1 214 c-1 291 -11 578 -24 679 -3 19 -7 54 -10 78 -3 23 -7
61 -10 85 -3 23 -10 67 -16 97 -6 30 -13 69 -15 85 -3 17 -19 82 -36 145 -82
306 -213 462 -388 464 -207 3 -379 -233 -454 -623 -14 -69 -27 -153 -31 -186
-3 -33 -8 -73 -10 -90 -2 -16 -7 -66 -10 -110 -3 -44 -8 -91 -10 -105 -2 -14
-6 -56 -10 -93 -3 -37 -8 -77 -10 -87 -12 -63 -19 -237 -17 -456 l1 -250 -97
-19 c-53 -9 -105 -19 -114 -21 -14 -2 -18 4 -19 29 0 18 -2 41 -3 52 -2 11 -7
58 -11 105 -4 47 -9 99 -11 115 -1 17 -5 66 -9 110 -3 44 -8 98 -10 120 -3 22
-7 69 -10 105 -3 36 -8 81 -10 100 -3 19 -7 55 -9 80 -3 25 -10 86 -16 135
-15 135 -21 185 -26 235 -2 25 -6 59 -8 75 -3 17 -8 53 -11 80 -31 237 -96
426 -171 499 -94 91 -185 88 -311 -13 -142 -114 -227 -294 -277 -587 -34 -195
-35 -230 -36 -801 l0 -491 -74 1 -75 0 -1 346 c0 190 -3 378 -5 416 -18 342
-16 320 -31 495 -13 157 -6 543 12 622 13 57 12 526 0 603 -8 44 -12 82 -10
84 6 7 329 5 589 -4 426 -14 888 -10 1130 9 22 2 78 7 125 10 100 8 385 42
462 56 29 5 70 11 90 14 21 3 58 10 83 16 25 6 62 13 83 16 20 3 66 13 102 21
36 8 76 17 90 20 13 2 27 6 29 9 9 9 20 3 16 -8z m-2172 -1325 c25 -64 56
-180 73 -268 4 -22 8 -45 9 -51 2 -6 6 -36 9 -66 4 -31 9 -66 11 -78 4 -20 8
-70 20 -270 3 -36 7 -126 10 -200 6 -156 12 -269 20 -356 l5 -61 -137 1 -137
1 -3 130 c-6 291 -5 826 1 920 9 125 15 201 21 240 5 39 19 128 21 138 1 4 2
15 3 25 3 31 46 -30 74 -105z m1238 -13 c31 -17 74 -119 94 -221 5 -25 30
-215 40 -309 4 -30 8 -66 10 -80 2 -14 7 -56 11 -95 3 -38 8 -83 10 -100 3
-30 6 -60 19 -190 4 -38 11 -94 15 -122 l7 -53 -46 -1 c-54 -1 -163 -7 -240
-13 l-53 -4 6 152 c3 83 8 169 10 191 2 22 7 90 11 150 4 61 8 128 10 150 2
22 6 112 9 200 7 188 12 232 32 303 15 54 22 59 55 42z m719 -2352 c1 -869 9
-1376 25 -1533 5 -48 13 -266 20 -543 2 -112 7 -206 9 -210 2 -4 7 -43 11 -87
4 -44 9 -93 11 -110 1 -16 6 -68 9 -115 4 -47 8 -96 10 -108 5 -28 -25 -59
-87 -90 -46 -23 -144 -62 -156 -62 -4 0 -7 161 -7 357 0 310 -5 463 -20 638
-1 22 -6 74 -9 115 -4 41 -8 89 -10 105 -2 17 -7 64 -11 105 -4 41 -9 82 -10
91 -2 9 -6 40 -10 70 -7 58 -62 428 -70 468 -31 162 -120 349 -214 448 -90 96
-200 151 -310 156 -53 3 -54 3 -87 -42 -45 -62 -110 -193 -129 -261 -15 -52
-58 -294 -70 -390 -3 -25 -8 -61 -10 -80 -36 -288 -40 -390 -40 -1020 0 -509
8 -849 19 -869 2 -3 7 -37 10 -76 3 -38 8 -80 10 -92 6 -27 -1 -29 -94 -28
l-75 0 1 30 c1 17 6 86 10 155 5 69 8 258 8 420 0 365 -10 565 -49 1050 -3 36
-7 103 -10 150 -3 47 -8 96 -10 110 -3 14 -8 48 -10 75 -3 28 -7 68 -9 90 -3
22 -8 72 -12 110 -3 39 -8 84 -10 100 -2 17 -7 53 -10 80 -8 68 -48 237 -73
309 -43 122 -148 288 -222 350 -76 64 -171 87 -241 59 -75 -30 -174 -168 -222
-310 -21 -63 -58 -206 -70 -278 -3 -16 -8 -41 -11 -55 -30 -155 -31 -158 -40
-236 -4 -33 -8 -69 -10 -82 -2 -12 -7 -57 -10 -100 -4 -42 -9 -86 -11 -97 -26
-134 -25 -1045 1 -1490 2 -38 6 -122 10 -185 3 -63 8 -146 11 -183 l6 -68
-132 5 c-73 2 -133 6 -135 8 -2 2 1 23 5 48 20 98 24 284 24 965 -1 800 -9
1235 -30 1505 -11 135 -11 911 -1 1013 14 141 10 135 77 135 l57 0 102 -109
c57 -60 106 -107 110 -105 4 3 33 58 66 123 32 65 59 119 59 120 4 6 72 13
136 14 124 0 243 -31 331 -87 22 -14 46 -23 52 -21 7 3 34 48 61 101 26 52 56
97 65 100 9 3 45 8 81 11 36 4 67 8 70 10 3 2 37 6 75 9 74 7 141 14 190 21
17 2 71 7 120 10 50 3 110 8 135 10 25 2 106 7 180 11 74 3 136 7 137 8 1 0
98 3 217 4 l216 3 0 -753z m-1770 -1232 c16 -64 23 -107 35 -211 15 -127 14
-119 30 -485 5 -117 8 -158 21 -310 5 -47 8 -283 8 -524 l1 -440 -55 3 c-30 2
-66 4 -80 6 -14 1 -44 3 -68 4 -40 1 -42 3 -41 29 1 15 -1 77 -5 137 -21 337
-28 597 -28 980 0 391 7 548 28 670 4 22 8 47 9 55 4 30 37 144 57 198 l21 56
24 -48 c13 -26 33 -80 43 -120z m1100 -80 c30 -63 82 -206 75 -206 -3 0 0 -11
5 -24 12 -32 30 -161 37 -276 14 -201 5 -1001 -11 -1029 -2 -3 -7 -33 -10 -66
-4 -33 -10 -77 -15 -97 -5 -21 -6 -38 -3 -38 15 0 -16 -19 -38 -24 -128 -29
-155 -35 -157 -33 -1 2 -5 156 -8 342 -7 447 -21 842 -31 889 -12 55 -12 365
0 426 21 111 86 229 113 208 7 -5 26 -38 43 -72z"/>
<path d="M20203 29270 c-56 -23 -120 -190 -147 -380 -7 -45 -18 -219 -20 -292
-1 -64 -6 -71 -44 -74 -172 -11 -213 -15 -252 -20 -87 -12 -132 -62 -132 -147
1 -73 52 -161 111 -191 28 -14 161 -41 250 -51 29 -3 57 -7 61 -10 22 -13 -5
-568 -29 -600 -4 -5 -38 -47 -75 -93 -115 -143 -145 -206 -184 -382 -36 -158
-42 -211 -67 -580 -19 -269 -7 -242 -123 -281 -169 -56 -278 -125 -336 -214
-113 -172 -63 -301 170 -440 70 -42 94 -61 90 -73 -3 -10 -12 -69 -21 -132 -9
-63 -18 -126 -20 -140 -2 -14 -7 -47 -10 -75 -4 -27 -8 -57 -10 -65 -2 -8 -7
-31 -10 -50 -5 -32 -9 -52 -19 -105 -16 -77 -42 -173 -68 -250 -44 -135 -175
-394 -270 -535 -123 -183 -290 -422 -293 -418 -2 2 -5 35 -6 73 -1 39 -6 88
-10 110 -4 22 -10 56 -13 75 -7 49 -32 117 -61 166 -31 53 -86 80 -180 89 -38
4 -73 7 -78 8 -18 4 -89 -223 -112 -355 -11 -62 -14 -85 -20 -133 -3 -27 -7
-70 -10 -95 -7 -58 -20 -338 -28 -578 0 -8 -10 -19 -21 -26 -12 -7 -58 -34
-103 -61 -142 -84 -227 -185 -253 -300 -16 -70 -13 -201 4 -260 26 -84 108
-154 238 -204 26 -10 27 -14 23 -58 -2 -26 -7 -84 -10 -128 -3 -44 -8 -105
-10 -136 -3 -31 -7 -96 -10 -145 -6 -101 -12 -198 -19 -299 -3 -38 -8 -124
-11 -190 -3 -66 -8 -147 -10 -180 -2 -33 -7 -141 -11 -240 -4 -99 -8 -209 -10
-245 -2 -36 -6 -371 -8 -745 -3 -374 -8 -759 -12 -855 -10 -226 -10 -729 -1
-845 4 -49 10 -495 12 -990 3 -495 7 -976 10 -1070 6 -175 8 -489 5 -842 l-1
-202 -72 -39 c-285 -157 -587 -524 -827 -1003 -39 -79 -73 -145 -74 -146 -1
-1 -3 43 -4 99 -1 55 -4 112 -7 127 -2 14 -7 68 -10 119 -4 52 -8 102 -10 112
-8 42 -16 231 -20 480 -3 146 -7 279 -9 295 -3 17 -8 68 -11 115 -4 47 -9 101
-11 120 -2 19 -6 384 -9 811 l-6 776 24 10 c51 23 137 115 169 180 29 59 32
75 32 152 -1 129 -20 157 -147 216 l-77 35 5 1148 c2 631 6 1165 8 1187 3 22
8 85 12 140 4 55 9 118 11 140 2 22 6 162 8 310 5 251 14 476 21 514 1 9 6 61
9 116 4 55 9 123 12 150 2 28 6 116 9 197 2 81 6 159 9 175 11 71 21 217 31
470 7 175 13 270 20 303 5 25 9 86 20 290 7 138 20 334 30 450 5 61 18 236 29
385 4 44 8 98 11 120 2 22 7 81 10 130 4 50 8 106 10 125 2 19 6 80 10 135 4
55 9 118 11 140 1 22 6 94 10 160 4 66 8 134 9 150 2 17 3 37 4 46 1 11 24 23
75 38 110 33 158 67 191 137 15 33 84 228 153 434 109 325 126 386 130 455 4
72 2 83 -19 109 -47 60 -160 113 -299 141 -49 10 -70 18 -71 29 -1 15 -7 50
-20 116 -22 108 -69 176 -138 199 -27 9 -40 8 -67 -5 -70 -33 -151 -147 -199
-279 -10 -27 -20 -52 -21 -53 -3 -5 -377 -16 -534 -16 -144 0 -297 10 -323 20
-9 3 -30 31 -48 62 -61 109 -305 459 -349 502 -3 3 -27 32 -55 65 -55 67 -81
97 -149 170 -25 28 -46 55 -47 60 0 6 -2 24 -3 40 -6 59 -18 170 -21 195 -2
14 -6 43 -9 65 -3 22 -8 60 -11 85 -4 25 -8 56 -10 70 -12 83 -25 183 -30 235
-4 33 -8 67 -10 75 -2 8 -7 54 -10 101 l-7 86 34 7 c18 3 58 8 88 11 30 4 60
8 67 10 21 7 253 19 348 18 94 0 218 -9 270 -19 57 -11 290 -13 350 -3 88 14
94 16 167 34 75 19 67 10 97 130 20 83 3 233 -54 495 -17 76 -23 109 -30 170
-15 115 -63 169 -184 206 -71 21 -283 7 -446 -30 -59 -14 -415 -86 -445 -90
-19 -3 -73 -8 -120 -11 -260 -18 -290 -21 -365 -35 -27 -6 -68 -12 -90 -15
-22 -3 -51 -7 -65 -10 -14 -3 -39 -8 -56 -11 -31 -6 -32 -8 -38 -72 -8 -80 -9
-235 -1 -277 3 -16 8 -46 11 -65 3 -19 8 -44 10 -55 2 -11 24 -141 49 -290 43
-258 48 -287 60 -345 2 -14 7 -41 10 -60 3 -19 17 -93 31 -165 33 -163 32
-200 -7 -355 -17 -69 -32 -132 -34 -140 -2 -8 -11 -44 -20 -80 -9 -36 -19 -76
-22 -90 -2 -14 -17 -79 -33 -145 -29 -120 -110 -481 -110 -490 0 -2 -141 -4
-312 -3 -172 1 -365 -1 -428 -6 -110 -7 -137 -10 -205 -21 -28 -5 -83 -8 -405
-20 -74 -3 -146 -7 -160 -10 -14 -3 -49 -10 -78 -17 l-53 -11 6 -56 c33 -307
151 -492 331 -518 69 -11 463 -9 519 1 103 20 253 31 240 18 -19 -18 -230 -81
-508 -152 -153 -39 -300 -81 -326 -94 -57 -29 -111 -87 -148 -158 -24 -47 -27
-64 -28 -153 0 -89 3 -105 27 -151 54 -103 167 -163 331 -178 27 -2 50 -6 52
-8 6 -5 13 -52 20 -128 3 -36 8 -83 10 -105 2 -22 7 -80 10 -129 8 -106 11
-157 19 -257 7 -91 14 -211 21 -349 9 -171 15 -263 21 -295 9 -55 13 -138 19
-355 3 -118 8 -244 10 -280 8 -105 16 -183 21 -210 3 -14 7 -117 9 -230 6
-262 14 -458 19 -490 17 -99 26 -315 31 -740 3 -201 7 -385 9 -410 2 -25 7
-88 11 -140 4 -52 8 -97 11 -101 2 -3 6 -253 9 -555 3 -302 8 -585 10 -629 9
-214 17 -351 22 -370 3 -11 6 -249 7 -530 l2 -510 -70 -39 c-140 -76 -211
-141 -253 -232 -41 -89 -33 -182 20 -234 56 -56 121 -77 262 -85 33 -2 65 -3
72 -4 9 -1 12 -73 13 -283 0 -156 2 -317 4 -358 7 -155 18 -322 22 -343 2 -12
6 -67 9 -122 2 -55 7 -170 11 -255 6 -156 7 -172 19 -310 12 -149 14 -187 20
-285 9 -172 15 -260 19 -281 2 -10 7 -55 10 -99 4 -44 9 -93 11 -110 2 -16 7
-66 10 -110 3 -44 8 -91 10 -105 2 -14 6 -56 10 -93 3 -37 8 -76 10 -85 1 -9
6 -37 9 -62 28 -209 87 -424 140 -515 34 -58 108 -122 173 -151 61 -27 149
-34 205 -15 39 13 95 82 123 151 23 57 27 216 9 320 -7 41 -15 90 -18 110 -29
201 -46 325 -51 375 -4 33 -8 71 -10 85 -2 14 -7 57 -10 95 -4 39 -8 81 -10
95 -4 23 -10 85 -20 190 -3 25 -7 81 -10 125 -4 44 -8 91 -10 105 -3 23 -9 86
-20 215 -2 28 -6 75 -9 105 -3 30 -8 87 -11 125 -4 39 -8 81 -10 95 -2 14 -7
66 -10 115 -9 151 -22 318 -30 400 -5 44 -13 141 -20 225 -2 30 -7 93 -11 140
-25 304 -33 552 -18 556 5 1 122 5 259 8 246 5 320 10 400 25 68 13 507 18
957 11 167 -2 151 8 168 -105 18 -127 19 -148 25 -425 5 -307 13 -547 20 -600
13 -103 16 -174 20 -480 5 -407 12 -571 29 -709 4 -25 9 -84 11 -131 3 -47 7
-105 10 -130 2 -25 7 -81 10 -125 8 -102 14 -167 30 -305 6 -54 15 -113 20
-140 3 -14 7 -45 10 -70 20 -167 101 -430 158 -515 27 -40 84 -93 108 -100 10
-4 19 -12 19 -18 -1 -71 10 -422 15 -452 3 -22 10 -71 16 -110 6 -38 12 -86
15 -105 20 -150 133 -620 196 -810 6 -19 17 -54 24 -77 l13 -42 -62 -60 c-34
-32 -76 -72 -93 -87 -65 -60 -270 -250 -300 -279 -18 -16 -81 -76 -140 -131
-215 -201 -475 -465 -589 -599 -33 -38 -68 -79 -79 -90 -75 -82 -301 -404
-377 -538 -87 -154 -202 -412 -256 -577 -58 -178 -119 -441 -138 -600 -3 -25
-8 -54 -10 -65 -10 -49 -20 -210 -19 -315 0 -123 6 -181 30 -330 126 -763 638
-1430 1344 -1751 221 -100 403 -153 660 -193 160 -25 540 -27 820 -3 19 1 25
-3 26 -18 1 -11 4 -51 7 -90 4 -38 9 -108 12 -155 3 -47 8 -103 10 -125 5 -52
18 -230 19 -275 l1 -35 -455 0 -455 0 -3 -93 -3 -92 43 -1 c110 -1 228 -27
297 -64 51 -28 123 -94 191 -174 25 -30 50 -59 55 -65 6 -6 22 -27 37 -46 l26
-35 0 -563 -1 -563 -48 -42 c-97 -85 -221 -144 -364 -172 -38 -8 -79 -16 -90
-19 -11 -2 -40 -7 -65 -11 -25 -4 -53 -9 -64 -11 -86 -16 -237 -21 -283 -9
-24 6 -37 35 -29 63 3 9 33 32 65 50 140 77 292 203 366 303 122 164 156 363
101 583 -74 289 -283 507 -553 576 -93 24 -243 27 -320 7 -29 -8 -53 -11 -53
-7 0 4 10 20 23 36 86 110 205 158 407 163 58 2 107 4 110 6 7 4 6 158 -2 170
-4 7 -273 10 -780 9 -425 -1 -780 -2 -789 -3 -13 -1 -15 -16 -16 -91 l0 -90
61 -1 c212 -3 373 -49 444 -127 66 -72 105 -177 117 -315 6 -72 5 -77 -33
-153 -38 -76 -65 -150 -80 -224 -9 -43 -9 -266 0 -300 18 -71 39 -123 79 -201
l44 -86 -1 -574 c-1 -533 -7 -800 -19 -874 -3 -16 -7 -52 -10 -78 -33 -353
-161 -604 -399 -784 -93 -69 -243 -139 -340 -157 -12 -2 -32 -7 -46 -10 -137
-32 -351 -32 -523 -1 -60 11 -241 84 -257 104 -3 3 -24 19 -48 35 -73 50 -167
158 -206 238 -47 96 -66 188 -86 423 -10 112 -7 2781 3 2815 4 14 10 38 12 54
8 40 28 76 66 114 76 77 175 101 424 101 l130 1 -1 83 c-1 45 -2 87 -3 92 -1
7 -397 10 -1169 10 l-1167 0 -1 -93 -1 -92 86 -1 c217 -2 313 -27 393 -104 49
-46 69 -103 84 -235 4 -36 8 -636 10 -1335 1 -698 5 -1292 8 -1320 33 -303 97
-506 219 -696 43 -68 190 -220 267 -276 270 -199 516 -287 892 -321 108 -9
503 -9 593 1 230 24 461 86 620 164 109 54 117 59 223 136 231 168 406 386
471 587 21 65 46 169 55 225 2 17 8 50 12 75 8 51 9 62 18 145 21 196 29 427
30 842 0 194 3 353 6 353 3 0 19 -9 35 -21 166 -113 412 -170 710 -164 251 5
482 63 617 157 14 10 30 18 36 18 6 0 9 -316 9 -872 0 -903 -3 -966 -43 -1083
-18 -53 -72 -142 -102 -167 -90 -74 -240 -115 -444 -121 l-58 -2 0 -91 0 -92
813 0 814 0 -1 91 -1 91 -110 2 c-134 2 -225 23 -319 72 -126 66 -187 147
-223 299 -15 60 -17 188 -19 1117 l-3 1050 38 61 c59 93 101 180 141 292 l36
102 104 -126 c58 -70 154 -185 213 -257 60 -72 116 -140 125 -151 21 -24 151
-182 172 -209 8 -10 22 -26 31 -35 8 -9 101 -119 205 -246 103 -126 256 -311
338 -410 216 -260 749 -903 821 -990 18 -22 83 -101 145 -175 61 -74 128 -155
148 -180 21 -24 65 -78 100 -120 34 -41 70 -84 80 -96 9 -11 36 -43 58 -70 23
-27 71 -85 108 -129 l66 -80 80 -1 80 -1 1 1866 c0 1026 2 1884 4 1906 14 215
41 300 121 385 58 62 158 102 319 126 28 4 55 9 60 9 6 1 25 3 43 3 l32 2 0
90 c0 50 -3 91 -7 91 -5 1 -343 2 -752 3 -529 1 -748 -2 -755 -10 -10 -10 -14
-160 -5 -168 2 -2 52 -6 111 -9 316 -18 474 -145 504 -407 2 -14 6 -54 10 -90
9 -77 12 -1910 3 -1915 -7 -5 -14 4 -269 320 -107 132 -199 245 -205 252 -12
14 -13 16 -90 113 -33 41 -62 77 -65 80 -5 4 -125 151 -163 200 -32 40 -225
278 -243 300 -12 14 -67 81 -123 150 -55 69 -114 141 -129 160 -16 19 -102
125 -191 235 -90 110 -179 220 -199 244 -20 24 -43 53 -51 64 -8 12 -22 28
-30 37 -9 10 -23 26 -31 36 -21 27 -92 115 -112 139 -27 33 -88 109 -101 125
-47 60 -103 127 -113 135 -8 7 -97 10 -243 10 l-230 -1 -6 25 c-6 29 -10 59
-25 181 -12 97 -19 152 -26 195 -2 17 -6 46 -8 65 -5 42 -15 114 -26 195 -4
33 -6 63 -4 67 2 3 28 14 57 24 142 46 512 224 632 302 205 134 361 308 529
586 69 114 79 132 121 226 21 47 46 104 56 127 11 23 19 48 19 55 0 8 4 18 9
23 15 16 76 220 87 294 3 20 8 39 10 42 17 28 25 370 11 490 -41 375 -214 735
-481 1003 -97 97 -144 135 -261 214 -354 240 -767 330 -1215 266 -14 -2 -37
-6 -52 -10 -30 -7 -34 1 -43 78 -3 26 -10 80 -15 120 -6 40 -12 89 -15 108 -2
19 -11 82 -19 140 -8 58 -18 127 -21 154 -3 27 -8 52 -9 55 -2 3 -7 33 -10 66
-4 33 -9 71 -11 85 -1 14 -8 63 -15 110 -7 47 -14 101 -16 120 -2 19 -6 46 -9
59 -5 18 5 36 43 80 26 31 59 69 73 85 13 16 30 35 38 43 34 36 250 298 338
412 393 506 663 945 838 1366 41 99 120 333 129 380 3 17 14 82 25 145 12 63
24 135 27 160 3 25 8 54 10 65 2 10 7 49 10 85 4 36 8 79 11 95 2 17 6 131 8
255 6 355 -35 587 -143 805 -26 53 -88 151 -109 173 -7 7 -13 16 -13 20 0 4
-5 36 -10 72 -5 36 -12 83 -15 105 -3 22 -7 54 -10 70 -2 17 -7 53 -10 80 -4
28 -8 61 -10 74 -3 14 -7 54 -10 90 -4 36 -8 73 -10 81 -2 8 -7 51 -11 95 -3
44 -7 82 -9 85 -2 3 -6 46 -10 95 -3 50 -8 101 -10 115 -2 14 -7 59 -10 100
-3 41 -8 95 -10 120 -3 25 -7 81 -10 125 -3 44 -7 109 -10 145 -17 217 -17
209 2 208 16 -1 71 4 183 17 19 2 82 7 140 10 58 4 125 8 150 10 25 2 97 7
160 10 63 3 142 8 176 10 33 2 114 7 180 10 65 3 142 7 169 10 28 2 91 7 140
10 50 4 101 8 115 10 14 2 59 6 100 10 82 7 261 29 373 46 99 14 104 15 175
29 34 7 64 11 66 9 2 -2 7 -44 11 -94 3 -49 8 -108 10 -130 2 -22 7 -80 10
-130 4 -49 8 -101 10 -114 2 -12 7 -69 11 -125 3 -55 7 -103 9 -106 2 -3 6
-45 10 -95 4 -49 8 -101 10 -115 2 -14 7 -56 10 -95 3 -38 8 -86 10 -105 2
-19 7 -64 10 -100 4 -36 8 -81 10 -100 2 -19 7 -64 10 -100 3 -36 8 -81 10
-100 2 -19 6 -66 10 -105 3 -38 8 -90 11 -114 3 -25 7 -70 10 -100 2 -31 6
-75 9 -99 5 -49 13 -128 20 -217 13 -164 16 -204 20 -245 2 -25 7 -79 10 -120
4 -41 8 -86 10 -100 2 -14 7 -50 10 -80 23 -191 100 -390 169 -435 14 -9 39
-17 57 -17 27 -1 40 7 75 46 43 50 69 113 78 196 26 228 25 186 25 810 0 551
-1 610 -14 745 -3 39 -8 239 -10 445 -4 397 -14 637 -30 730 -5 27 -12 232
-20 560 -3 113 -7 223 -10 245 -4 44 -12 171 -20 308 -3 49 -7 202 -10 340 -5
254 -11 400 -21 557 -3 47 -9 150 -12 230 -9 192 -7 1514 3 1660 4 63 8 142
10 175 1 33 6 119 9 190 3 72 9 193 11 270 9 247 15 389 20 445 2 30 7 89 10
130 3 41 8 91 10 110 3 19 8 55 10 80 8 65 15 121 20 150 2 14 7 43 10 65 3
22 15 85 28 140 l22 99 70 21 c192 56 270 143 279 311 3 61 0 92 -14 132 -20
57 -89 159 -139 206 -22 21 -29 36 -25 49 17 55 40 249 39 325 -3 110 -20 187
-60 265 l-32 62 -59 -1 c-60 -1 -149 -35 -190 -72 -53 -47 -48 -50 -108 58
-31 55 -56 102 -56 104 0 2 -16 33 -36 68 -63 110 -251 490 -284 572 -55 141
-108 391 -126 601 -3 39 -7 86 -9 105 -3 28 -13 219 -19 350 -1 19 15 37 78
85 51 38 91 78 109 108 26 43 29 58 30 130 0 106 -24 156 -128 261 -83 84 -86
89 -111 203 -15 67 -18 142 -20 523 -2 457 -3 464 -24 540 -23 86 -85 166
-173 222 -44 28 -47 33 -43 62 3 17 8 94 11 171 10 256 21 385 36 399 2 2 74
18 159 35 216 43 215 43 214 72 -5 90 -17 168 -31 196 -9 19 -36 46 -67 65
-49 31 -56 32 -153 33 -115 0 -107 -7 -103 85 2 50 3 68 16 185 4 44 8 134 8
201 0 109 -2 125 -24 169 -45 86 -132 133 -197 105z m-76 -2937 c8 -31 8 -89
-1 -269 -4 -80 -2 -133 6 -155 14 -41 55 -104 96 -144 l29 -29 -59 -48 c-146
-116 -162 -168 -162 -533 -1 -230 22 -426 68 -605 47 -179 92 -295 196 -505
111 -223 117 -234 355 -635 198 -333 205 -348 205 -416 l0 -57 -32 38 c-32 36
-51 67 -81 130 -8 17 -36 67 -62 110 -240 398 -567 613 -910 601 -66 -3 -124
-12 -170 -26 -65 -20 -207 -90 -265 -130 -14 -9 -31 -20 -38 -24 -7 -4 7 33
32 83 45 88 97 197 158 331 107 232 256 661 282 813 3 15 7 35 10 45 3 9 7 28
10 42 3 14 9 48 15 77 6 29 13 74 17 100 3 26 8 57 10 68 13 67 15 213 4 273
-18 95 -62 206 -115 287 -50 75 -51 69 26 110 49 26 144 97 171 130 27 31 74
123 102 199 30 79 76 166 87 166 5 0 12 -12 16 -27z m-4097 -1797 c25 -3 65
-8 90 -11 25 -3 54 -7 65 -9 11 -2 61 -7 110 -11 102 -9 105 -9 160 -18 22 -4
60 -9 85 -12 72 -9 105 -17 111 -27 9 -14 -3 -312 -15 -388 -9 -52 -25 -280
-32 -430 -2 -58 -6 -118 -8 -135 -10 -78 -22 -239 -32 -430 -3 -66 -7 -138 -9
-160 -7 -91 -18 -201 -21 -220 -3 -11 -7 -148 -10 -305 -2 -157 -6 -298 -8
-315 -2 -16 -7 -61 -11 -100 -4 -38 -9 -79 -11 -90 -3 -11 -7 -135 -9 -275 -5
-322 -16 -529 -30 -600 -8 -39 -16 -321 -19 -696 -1 -187 -5 -345 -8 -350 -6
-9 -11 -71 -24 -279 -4 -55 -7 -309 -9 -565 -1 -412 -7 -595 -20 -695 -6 -45
-17 -358 -20 -595 -2 -113 -4 -222 -4 -243 l-1 -38 -157 5 c-87 3 -169 8 -183
10 -14 2 -47 7 -74 11 -74 10 -73 9 -81 93 -4 42 -9 85 -10 94 -17 87 -25 344
-27 803 -1 571 -17 678 -118 774 -125 118 -352 139 -496 45 -87 -56 -98 -139
-51 -359 22 -98 39 -236 42 -342 6 -194 17 -397 20 -403 5 -8 15 -139 20 -260
11 -247 16 -310 35 -410 5 -25 7 -47 5 -49 -3 -2 -28 -5 -57 -7 -133 -8 -240
-17 -353 -29 -22 -3 -108 -8 -191 -11 l-152 -7 -6 39 c-3 21 -8 64 -11 94 -3
30 -10 89 -15 130 -5 41 -12 100 -15 130 -5 55 -12 116 -21 177 -2 18 -6 66
-9 105 -3 40 -7 84 -10 98 -2 14 -7 68 -11 120 -3 52 -8 113 -9 135 -2 22 -6
99 -10 170 -13 258 -14 282 -19 326 -4 24 -8 62 -11 84 -2 22 -7 155 -10 295
-11 468 -20 664 -31 682 -5 8 -11 295 -19 868 -3 201 -7 383 -9 405 -15 156
-21 270 -31 585 -4 118 -8 242 -10 275 -6 130 -17 362 -20 405 -7 116 -17 259
-20 296 -1 22 -6 83 -10 135 -4 52 -8 110 -10 129 -2 19 -6 73 -10 120 -4 47
-8 96 -10 110 -2 14 -7 57 -10 95 -3 39 -8 86 -11 106 -3 20 -7 59 -9 85 -3
27 -12 103 -20 169 -8 66 -17 140 -20 165 -5 44 -23 176 -30 215 -6 34 -19
139 -20 155 0 14 74 30 214 45 30 3 57 7 60 9 3 2 35 7 71 10 36 4 79 9 95 11
82 12 116 16 190 21 44 2 98 6 120 9 22 2 83 7 135 10 52 4 111 8 130 10 19 3
96 7 170 11 74 4 137 8 139 10 6 5 594 -4 641 -10z m3820 -1231 c60 -13 106
-42 158 -101 70 -78 121 -186 195 -414 77 -235 91 -269 136 -340 113 -180 216
-236 474 -259 7 -1 3 -219 -8 -386 -5 -80 -12 -202 -21 -360 -3 -60 -7 -137
-9 -170 -2 -33 -6 -178 -10 -321 -3 -144 -8 -279 -10 -300 -3 -34 -12 -164
-20 -304 -2 -25 -6 -187 -9 -360 -6 -303 -13 -530 -21 -635 -20 -269 -26 -588
-27 -1325 -1 -616 2 -733 23 -844 12 -67 12 -75 -8 -74 -21 1 -178 -12 -204
-17 -9 -2 -55 -6 -101 -10 -45 -4 -99 -8 -118 -10 -19 -2 -73 -6 -120 -10 -47
-4 -101 -8 -120 -10 -19 -2 -87 -6 -150 -10 -63 -3 -136 -8 -161 -10 -26 -2
-109 -6 -185 -9 -124 -5 -294 -14 -394 -21 -19 -1 -84 -6 -145 -10 -125 -9
-454 -9 -462 -1 -3 3 -7 45 -9 92 -3 123 -20 463 -29 599 -15 246 -19 456 -19
1170 1 706 5 937 19 1105 6 80 16 358 20 630 3 146 7 297 10 335 9 114 15 178
20 215 3 19 7 100 10 180 10 275 18 416 29 505 8 56 19 231 20 288 l0 49 85
51 c126 77 215 169 302 312 169 279 305 464 431 588 180 175 288 224 428 192z
m-1760 -9241 c11 -87 23 -170 26 -184 3 -14 7 -36 10 -50 18 -100 52 -216 81
-276 52 -110 146 -215 253 -285 l25 -16 -24 -73 c-13 -41 -32 -89 -42 -107
-11 -18 -19 -38 -19 -42 0 -29 -211 -369 -263 -423 -7 -7 -28 -33 -47 -58
-126 -163 -789 -830 -802 -807 -22 40 -73 311 -84 447 -12 144 -7 324 12 440
56 342 394 1042 673 1395 30 39 60 75 66 81 5 6 32 37 59 68 27 31 50 55 52
53 2 -2 13 -75 24 -163z m-776 -3665 c4 -35 9 -73 11 -84 2 -11 7 -40 10 -65
3 -25 7 -58 10 -75 2 -16 7 -50 10 -75 3 -25 8 -57 10 -73 2 -15 9 -64 15
-110 6 -45 13 -92 15 -103 2 -12 7 -48 10 -80 4 -33 9 -68 11 -79 2 -11 7 -42
10 -70 3 -27 7 -55 9 -62 2 -6 -19 -19 -48 -28 -58 -19 -227 -99 -299 -142
-94 -56 -213 -150 -308 -243 -276 -271 -423 -563 -495 -980 -11 -64 -14 -324
-4 -375 5 -27 12 -66 15 -85 9 -56 43 -149 87 -239 133 -274 426 -534 705
-626 139 -46 239 -22 230 54 -2 20 -21 33 -108 77 -257 129 -377 281 -415 523
-13 84 -14 347 -1 401 3 14 8 39 12 55 20 106 91 268 163 374 115 169 302 317
496 392 43 16 79 28 81 27 2 -3 30 -192 49 -341 14 -100 22 -159 30 -217 2
-14 6 -45 10 -70 3 -25 12 -92 20 -150 9 -58 20 -136 25 -175 5 -38 14 -101
20 -140 5 -38 12 -86 14 -105 9 -68 16 -117 36 -260 26 -185 27 -190 40 -285
5 -44 12 -91 14 -105 3 -14 7 -47 11 -75 10 -78 15 -117 21 -153 3 -17 7 -49
10 -70 8 -71 15 -117 19 -142 2 -14 7 -43 10 -65 2 -22 9 -71 15 -110 5 -38
10 -75 10 -81 0 -6 -48 -21 -107 -34 -100 -21 -209 -27 -298 -15 -16 2 -63 7
-103 10 -64 5 -260 35 -317 48 -115 27 -162 40 -230 62 -44 14 -89 30 -100 34
-207 94 -298 145 -414 232 -301 228 -503 566 -594 994 -15 66 -29 143 -33 170
-4 28 -8 58 -10 68 -27 151 -23 536 7 614 5 13 7 23 4 23 -9 0 76 230 115 310
47 95 134 245 196 335 45 66 141 202 155 219 5 6 40 51 79 99 158 201 412 495
615 711 17 18 64 70 105 115 41 46 89 98 105 115 17 18 73 79 125 135 106 116
101 117 114 -10z m705 -1659 c124 -21 207 -48 314 -101 312 -156 542 -475 584
-812 12 -97 5 -440 -11 -524 -2 -11 -7 -44 -11 -74 -11 -96 -56 -262 -98 -364
-109 -269 -315 -477 -602 -607 -103 -47 -125 -53 -125 -36 0 11 -11 89 -25
183 -2 17 -7 53 -10 80 -4 28 -8 61 -10 75 -7 40 -23 161 -30 215 -4 28 -8 57
-10 65 -2 8 -7 42 -10 75 -3 33 -8 67 -10 75 -5 17 -12 68 -30 215 -3 22 -7
51 -10 64 -2 13 -7 49 -11 80 -3 31 -8 65 -10 76 -2 11 -8 56 -14 100 -6 44
-12 89 -14 100 -2 11 -7 47 -10 80 -4 33 -9 67 -11 75 -2 8 -6 38 -10 65 -3
28 -8 64 -11 80 -5 34 -9 65 -24 180 -5 44 -12 89 -14 100 -2 11 -7 43 -10 70
-4 28 -9 61 -11 75 -2 14 -7 47 -10 74 -3 27 -8 59 -10 70 -3 12 -7 44 -10 71
-3 28 -7 65 -10 83 -3 17 -7 47 -10 65 -5 32 -4 33 32 35 21 2 38 4 40 6 5 5
169 -5 222 -14z"/>
<path d="M15430 22668 c-204 -37 -295 -85 -449 -237 -205 -203 -285 -338 -298
-502 -9 -107 33 -310 104 -499 85 -228 209 -373 389 -453 132 -58 182 -70 304
-71 104 -1 120 1 170 25 67 32 109 70 191 174 149 190 263 417 294 585 18 97
10 263 -19 400 -28 131 -105 276 -193 367 -167 171 -328 240 -493 211z"/>
<path d="M20002 20842 c-34 -128 -39 -168 -47 -377 -9 -263 -16 -393 -19 -412
-7 -35 -15 -115 -21 -203 -3 -47 -8 -101 -10 -120 -5 -39 -12 -108 -21 -190
-9 -89 -6 -277 6 -334 6 -30 19 -61 28 -69 36 -33 116 -59 187 -60 62 -2 76 2
116 27 56 36 79 70 112 171 35 108 55 210 63 330 9 127 9 885 1 945 -9 60 -57
156 -107 213 -43 49 -95 82 -202 127 l-66 28 -20 -76z"/>
<path d="M19140 20866 c0 -9 -6 -13 -15 -10 -28 11 -143 -202 -160 -296 -3
-18 -8 -36 -10 -40 -10 -16 -41 -224 -50 -335 -4 -44 -9 -83 -11 -86 -5 -9
-17 -322 -17 -459 0 -196 12 -304 49 -437 l15 -51 62 -10 c34 -5 114 -9 177
-8 101 2 122 5 173 29 76 35 104 58 101 82 -4 27 -14 96 -18 126 -28 183 -37
547 -27 1165 2 127 0 145 -19 188 -24 50 -79 108 -125 132 -15 8 -50 17 -76
20 -40 5 -49 3 -49 -10z"/>
<path d="M24259 26427 c-42 -29 -64 -73 -94 -190 -32 -125 -53 -282 -61 -448
-4 -74 -8 -136 -10 -138 -2 -2 -50 -5 -106 -7 -123 -4 -158 -8 -221 -24 -70
-18 -84 -53 -91 -223 l-4 -89 32 -19 c88 -54 202 -58 414 -13 l34 7 -6 -149
c-4 -82 -8 -167 -11 -189 -3 -22 -7 -58 -9 -80 -23 -204 -24 -206 -106 -304
-77 -93 -116 -168 -181 -345 -50 -136 -75 -167 -146 -185 -83 -21 -167 -53
-196 -73 -57 -40 -85 -141 -65 -232 5 -23 40 -106 78 -186 89 -187 98 -214
120 -360 11 -70 5 -386 -8 -425 -33 -104 -99 -151 -382 -272 -91 -39 -187 -84
-215 -99 -156 -86 -349 -293 -505 -544 -56 -90 -181 -330 -244 -470 -77 -170
-89 -191 -127 -223 -20 -18 -70 -50 -111 -71 -121 -65 -174 -103 -195 -140
-12 -21 2 -87 32 -149 43 -92 189 -184 393 -248 115 -36 122 -42 128 -123 6
-74 6 -302 0 -366 -3 -30 -8 -84 -11 -120 -3 -36 -7 -78 -10 -95 -2 -16 -7
-68 -11 -115 -4 -47 -8 -96 -9 -110 -2 -14 -3 -58 -4 -97 -1 -67 -3 -73 -23
-77 -13 -2 -61 -11 -108 -19 -144 -25 -233 -54 -344 -109 l-59 -30 6 -71 c11
-134 108 -273 250 -357 61 -37 60 -34 73 -165 3 -33 7 -76 9 -95 4 -32 9 -95
20 -245 20 -263 25 -883 12 -1335 -4 -129 -9 -356 -13 -505 -3 -148 -7 -292
-8 -320 -15 -224 -20 -504 -20 -1085 -1 -588 3 -790 19 -940 2 -19 6 -84 9
-145 9 -164 15 -212 38 -300 25 -93 57 -132 146 -171 111 -49 146 -43 287 49
l71 45 -2 284 c-11 1728 -15 2224 -20 2288 -10 138 -13 224 -19 490 -14 695
-16 760 -31 915 -2 28 -6 120 -9 205 -9 295 -17 483 -29 635 -5 60 -14 199
-21 327 l-3 67 254 0 254 0 -5 -677 c-7 -799 -13 -1219 -19 -1247 -2 -12 -7
-75 -11 -140 -3 -66 -8 -154 -11 -195 -2 -41 -6 -203 -9 -360 -2 -157 -6 -310
-9 -340 -3 -30 -8 -104 -11 -165 -4 -60 -9 -128 -11 -150 -3 -22 -7 -152 -9
-290 -6 -307 -14 -606 -20 -660 -11 -116 -25 -406 -30 -625 -2 -102 -6 -196
-9 -210 -4 -14 -9 -73 -13 -131 -8 -150 9 -212 86 -309 18 -22 26 -25 93 -24
59 1 83 6 126 28 97 49 160 121 197 226 15 40 17 186 20 1380 2 734 6 1353 8
1375 11 98 23 604 33 1365 2 223 6 423 8 445 2 22 7 90 11 150 4 61 9 126 10
145 6 74 18 267 19 307 1 23 4 45 7 48 3 3 103 7 222 10 l217 5 1 -68 c2 -139
-1 -300 -7 -377 -5 -74 -14 -125 -65 -375 -33 -161 -68 -368 -83 -490 -4 -30
-11 -82 -16 -115 -5 -33 -12 -87 -15 -120 -3 -33 -8 -71 -10 -85 -3 -14 -7
-56 -11 -95 -3 -38 -7 -81 -9 -95 -2 -14 -6 -59 -10 -100 -3 -41 -8 -97 -10
-125 -9 -101 -29 -412 -40 -644 -4 -68 -8 -140 -10 -160 -23 -235 -24 -1462 0
-1597 4 -25 14 -141 20 -234 6 -105 13 -145 36 -218 26 -84 60 -136 111 -169
40 -27 46 -28 160 -27 66 1 121 3 123 6 4 4 11 77 20 213 4 50 7 367 7 705 0
338 4 653 8 700 17 187 21 253 25 450 16 714 17 754 30 875 5 59 8 94 20 340
10 192 23 342 32 377 4 13 8 320 9 683 1 363 3 670 3 683 1 22 3 23 69 17 37
-3 74 -8 82 -10 8 -2 38 -7 65 -10 58 -7 68 -9 113 -19 24 -6 32 -13 32 -29 1
-51 -2 -385 -4 -422 -2 -35 -11 -139 -21 -245 -3 -33 -7 -136 -20 -575 -3 -93
-8 -183 -11 -199 -33 -188 -41 -2246 -9 -2448 2 -13 6 -54 10 -93 8 -86 13
-133 30 -280 13 -117 19 -152 40 -248 38 -170 98 -278 177 -321 l34 -19 115
40 114 39 0 65 c0 35 -8 125 -18 199 -24 186 -26 198 -37 260 -5 30 -12 80
-15 110 -3 30 -7 69 -10 85 -25 181 -26 2413 -1 2760 7 102 18 222 21 245 3
24 15 125 20 180 1 14 6 57 10 95 15 145 23 276 30 462 8 217 25 285 94 388
57 83 70 120 77 212 2 37 7 82 9 99 4 30 3 31 -63 53 -127 43 -121 40 -117 74
10 74 24 221 30 332 3 50 8 115 10 145 3 30 7 87 10 125 6 72 12 123 21 185 2
19 6 49 9 67 8 66 37 182 48 191 7 6 30 12 52 15 78 11 195 46 267 80 225 105
330 286 254 440 -15 31 -64 92 -122 152 -103 106 -131 153 -139 232 -24 223
-82 417 -182 602 -38 72 -123 203 -143 221 -3 3 -18 23 -35 45 -111 149 -360
345 -558 439 -32 15 -57 30 -55 34 39 73 59 129 60 159 0 21 -12 92 -27 158
-21 94 -27 152 -29 270 -2 83 -1 169 1 192 6 49 4 48 184 84 l116 23 16 55
c22 77 42 172 41 196 -1 11 -2 32 -3 46 -1 18 -32 56 -111 134 -121 120 -139
149 -190 313 -32 102 -119 290 -182 394 -31 51 -32 57 -31 159 0 87 15 254 28
329 10 52 23 167 24 211 1 21 6 25 29 26 72 0 193 14 236 27 140 42 219 170
160 261 -51 81 -130 115 -304 130 -90 8 -120 12 -124 16 -2 2 4 64 14 137 20
145 30 227 36 282 2 19 6 59 9 87 7 60 -6 119 -34 155 -62 78 -177 109 -242
65z m-19 -2484 c43 -98 111 -231 136 -267 12 -18 8 -25 -35 -68 -151 -151
-216 -519 -148 -840 13 -65 23 -118 21 -118 -1 0 -33 6 -71 14 -37 8 -85 17
-105 20 l-37 7 0 247 c0 394 -22 547 -106 754 -14 34 -24 62 -22 63 33 16 98
67 133 103 129 134 178 182 184 182 3 0 26 -44 50 -97z m-348 -1677 c161 -10
451 -79 585 -140 159 -73 301 -217 379 -383 62 -131 148 -400 170 -532 3 -14
14 -69 24 -121 11 -52 22 -106 24 -120 3 -14 8 -40 12 -59 l7 -33 -69 6 c-38
4 -87 9 -109 11 -22 2 -67 7 -100 10 -33 3 -76 8 -95 10 -19 2 -62 7 -95 10
-33 3 -71 8 -85 10 -14 2 -52 6 -85 10 -33 3 -73 7 -90 10 -28 4 -54 7 -165
20 -25 3 -67 7 -95 11 -27 3 -66 7 -85 9 -19 2 -57 6 -85 10 -27 3 -72 8 -100
10 -27 3 -70 7 -95 10 -68 7 -127 13 -205 21 -38 4 -83 8 -100 10 -16 1 -75 6
-130 9 -55 4 -116 8 -135 10 -35 3 -406 18 -467 18 -39 0 -39 1 -13 95 51 185
158 431 246 570 195 304 456 479 759 508 39 4 72 8 73 10 2 1 9 1 15 -1 7 -2
56 -6 109 -9z m-502 -1762 c36 -4 71 -6 78 -5 19 3 14 -12 -16 -44 -86 -91
-177 -239 -219 -356 -24 -65 -27 -89 -27 -194 0 -145 20 -206 91 -285 106
-118 244 -174 425 -173 217 2 441 173 515 393 26 78 25 256 -1 325 -27 72 -74
142 -147 219 l-63 67 106 -5 c148 -8 364 -40 493 -73 11 -3 35 -7 53 -10 29
-5 36 -13 34 -43 0 -3 -3 -75 -6 -160 -4 -85 -9 -186 -11 -225 -2 -38 -7 -126
-10 -195 -3 -69 -8 -152 -10 -185 -2 -33 -7 -105 -10 -160 -6 -100 -14 -167
-20 -173 -13 -14 -651 -2 -675 13 -3 1 -43 6 -90 9 -47 4 -98 9 -115 11 -27 4
-126 14 -200 20 -70 6 -181 17 -197 20 -9 2 -52 7 -95 10 -43 4 -80 8 -83 10
-3 2 -34 6 -70 10 -35 3 -67 8 -70 10 -3 1 -30 6 -60 9 -30 4 -95 15 -145 25
l-90 17 2 76 c2 76 5 125 20 323 12 170 9 509 -5 603 -8 46 -12 85 -10 87 2 2
30 7 63 10 33 4 68 9 77 11 10 1 59 6 110 10 51 3 94 7 96 9 5 5 215 -4 282
-11z"/>
<path d="M5723 25118 c1 -7 -6 -12 -15 -10 -22 3 -49 -49 -74 -143 -27 -101
-26 -382 2 -510 12 -61 12 -75 -2 -75 -17 0 -2 3 -107 -20 -49 -11 -105 -30
-125 -42 -110 -67 -131 -164 -51 -240 41 -39 71 -47 214 -51 l70 -3 -1 -109
c-1 -156 -13 -356 -29 -470 -22 -168 -78 -346 -125 -401 -14 -16 -65 -60 -113
-98 -49 -38 -93 -80 -98 -94 -33 -86 6 -188 108 -282 36 -33 69 -60 73 -60 4
0 3 -26 -1 -57 -4 -32 -10 -87 -14 -123 -12 -108 -17 -146 -30 -230 -2 -19 -7
-55 -10 -80 -3 -25 -8 -56 -10 -70 -3 -14 -7 -43 -10 -65 -5 -42 -10 -78 -20
-148 -10 -72 -13 -90 -24 -162 -13 -87 -17 -116 -41 -289 -11 -77 -22 -141
-24 -143 -2 -2 -7 27 -11 64 -4 37 -9 77 -11 88 -1 11 -6 43 -9 70 -7 55 -13
97 -20 135 -2 14 -7 45 -10 70 -3 25 -8 56 -10 70 -3 14 -7 45 -10 70 -3 25
-8 59 -11 75 -9 58 -24 145 -29 172 -3 16 -10 55 -16 87 -5 33 -12 62 -14 65
-1 3 -6 23 -9 43 -25 156 -141 585 -186 683 -5 11 -15 38 -22 60 -23 70 -75
169 -102 194 -18 17 -40 25 -69 27 -36 2 -46 -2 -70 -29 -38 -44 -111 -188
-140 -278 -35 -107 -109 -407 -142 -579 -1 -8 -6 -35 -9 -60 -3 -25 -8 -54
-10 -66 -18 -89 -24 -308 -11 -385 l6 -37 -88 -47 c-48 -27 -90 -49 -92 -51
-5 -4 29 -143 41 -169 5 -11 40 -49 78 -85 l69 -65 6 -110 c5 -109 9 -239 20
-660 10 -358 19 -602 30 -750 2 -33 7 -105 11 -160 3 -55 8 -104 11 -108 2 -4
6 -112 8 -240 4 -225 13 -563 20 -717 21 -456 28 -1503 11 -1805 -4 -88 -9
-191 -11 -230 -2 -38 -6 -137 -10 -220 -4 -82 -9 -265 -11 -405 -1 -140 -5
-283 -8 -317 -5 -60 -13 -190 -22 -373 -5 -101 -5 -1045 0 -1110 25 -327 57
-419 196 -561 92 -93 168 -134 250 -134 77 0 101 9 144 52 107 107 119 181
102 628 -3 77 -8 150 -10 161 -2 12 -7 62 -11 110 -3 49 -8 100 -10 114 -2 14
-7 70 -10 124 -3 55 -8 118 -10 140 -2 23 -7 70 -9 106 -19 251 -24 323 -31
425 -3 44 -8 114 -11 155 -2 41 -7 107 -9 145 -3 39 -7 95 -9 125 -2 30 -7
107 -11 170 -4 63 -8 138 -11 165 -2 28 -6 88 -9 135 -3 47 -7 112 -10 145 -3
33 -7 101 -10 150 -3 50 -8 117 -10 150 -7 84 -14 186 -20 280 -3 44 -8 103
-10 130 -2 28 -7 91 -10 140 -4 50 -8 104 -11 120 -6 48 -14 188 -19 336 -6
170 -11 240 -30 469 -5 54 -13 297 -21 590 -3 118 -7 238 -8 265 -2 28 -7 104
-11 170 -4 66 -9 143 -11 170 -7 103 -8 375 -1 381 9 10 382 3 392 -7 3 -3 7
-226 10 -495 3 -269 7 -514 10 -544 8 -102 16 -185 20 -215 2 -16 7 -100 10
-185 7 -162 10 -203 19 -310 3 -36 8 -94 11 -130 3 -36 7 -87 10 -115 3 -27 7
-86 10 -130 4 -44 7 -96 9 -115 2 -19 7 -71 10 -115 4 -44 9 -91 11 -105 2
-14 7 -61 11 -105 4 -44 8 -91 9 -105 2 -14 6 -56 9 -95 4 -38 9 -91 11 -117
8 -80 14 -140 20 -208 4 -36 8 -76 10 -90 2 -14 6 -59 10 -100 3 -41 8 -86 10
-100 2 -14 7 -59 10 -100 4 -41 8 -88 10 -105 2 -16 7 -57 10 -90 3 -33 8 -71
10 -85 2 -14 6 -55 10 -91 3 -36 7 -76 10 -90 2 -13 6 -53 10 -89 4 -36 8 -76
10 -90 2 -14 6 -47 9 -75 4 -27 8 -63 10 -80 11 -84 19 -142 22 -165 2 -14 6
-47 9 -75 3 -27 7 -61 10 -75 2 -14 7 -45 10 -70 3 -25 8 -57 11 -72 3 -15 7
-42 9 -60 3 -33 8 -65 25 -168 5 -30 12 -73 15 -95 3 -22 10 -65 15 -95 5 -30
12 -72 16 -94 3 -21 8 -48 10 -60 4 -22 7 -39 25 -141 6 -33 21 -114 34 -180
13 -66 26 -133 29 -150 7 -35 11 -54 25 -115 5 -25 12 -56 15 -70 30 -161 88
-255 187 -306 59 -30 99 -30 156 -3 63 31 71 48 76 173 5 106 -4 162 -69 446
-31 135 -57 252 -59 260 -23 113 -77 393 -85 441 -5 35 -12 75 -15 89 -3 14
-8 41 -11 60 -3 19 -16 103 -29 185 -13 83 -26 172 -30 198 -4 27 -8 59 -11
70 -2 12 -6 42 -9 67 -7 57 -13 107 -25 195 -6 39 -12 86 -14 105 -14 112 -25
203 -31 255 -2 17 -7 57 -10 90 -8 75 -14 129 -20 180 -2 22 -7 67 -10 100 -3
33 -8 74 -10 90 -2 17 -6 62 -10 100 -3 39 -8 86 -10 105 -3 19 -7 67 -10 105
-3 39 -7 86 -10 105 -7 51 -14 126 -20 205 -5 65 -10 114 -20 205 -2 19 -6 69
-10 110 -3 41 -8 91 -10 110 -3 19 -7 67 -10 105 -4 39 -8 87 -11 108 -2 20
-6 68 -9 105 -3 37 -8 82 -10 100 -2 18 -7 68 -10 110 -3 42 -8 100 -10 127
-2 28 -7 91 -10 140 -4 50 -8 108 -10 131 -2 22 -7 94 -10 160 -4 65 -8 148
-11 184 -7 98 -12 868 -7 919 l5 44 152 -7 c83 -4 167 -8 186 -10 19 -2 77 -7
128 -11 52 -3 103 -8 114 -10 11 -3 52 -5 90 -6 38 -1 71 -6 74 -11 3 -4 7
-129 9 -276 6 -350 15 -685 20 -711 5 -28 14 -240 20 -501 6 -230 17 -435 30
-512 2 -13 6 -129 10 -258 3 -129 8 -273 10 -320 9 -187 16 -318 20 -370 2
-30 6 -107 10 -170 3 -63 8 -131 10 -150 2 -19 6 -78 10 -130 3 -52 7 -111 9
-130 2 -19 7 -73 11 -120 3 -47 8 -98 10 -115 5 -41 17 -163 20 -205 3 -34 11
-111 20 -180 3 -19 7 -60 10 -90 3 -30 8 -68 10 -85 3 -16 7 -48 10 -70 2 -21
9 -73 15 -115 19 -143 22 -165 25 -190 2 -14 5 -38 8 -55 3 -16 9 -50 12 -75
4 -25 9 -54 11 -65 2 -10 6 -37 9 -60 18 -120 57 -331 66 -347 5 -10 8 -18 5
-18 -7 0 38 -130 57 -166 42 -76 113 -128 156 -113 46 16 74 71 75 147 0 59
-10 240 -19 342 -8 95 -16 178 -20 210 -2 19 -7 64 -10 100 -3 36 -8 76 -10
90 -2 14 -7 52 -10 85 -3 33 -8 79 -10 103 -3 23 -7 61 -10 85 -12 118 -15
148 -20 222 -3 44 -7 98 -10 120 -9 77 -16 157 -20 213 -2 31 -7 84 -9 117
-12 133 -22 298 -41 665 -14 283 -22 412 -30 510 -12 154 -16 234 -21 490 -2
157 -7 319 -9 360 -2 41 -7 134 -10 205 -4 72 -8 146 -11 165 -2 19 -6 233 -9
475 -2 242 -7 545 -10 673 l-5 232 168 0 167 0 1 -117 c0 -109 12 -483 19
-598 2 -27 6 -106 10 -175 3 -69 8 -141 10 -160 2 -19 7 -80 10 -135 3 -55 8
-123 10 -151 3 -28 7 -95 10 -150 3 -54 8 -124 10 -154 3 -30 7 -100 10 -155
13 -230 25 -415 40 -600 13 -147 15 -184 20 -250 5 -71 10 -134 20 -235 2 -30
7 -89 11 -130 3 -41 7 -91 9 -110 2 -19 6 -69 10 -110 3 -41 8 -95 10 -120 3
-25 7 -70 10 -100 3 -30 7 -76 10 -102 9 -85 14 -141 21 -218 3 -41 7 -88 10
-105 2 -16 6 -64 9 -105 3 -41 7 -86 10 -100 2 -14 7 -54 10 -90 3 -36 8 -81
10 -100 2 -19 7 -64 10 -100 3 -36 8 -81 10 -100 2 -19 7 -64 10 -100 3 -36 8
-83 11 -105 12 -96 14 -113 19 -175 9 -101 34 -239 53 -293 36 -103 128 -185
212 -190 31 -2 36 2 56 43 52 106 68 194 69 370 0 139 -7 261 -20 330 -4 24
-16 149 -20 220 -2 35 -7 85 -9 110 -7 55 -13 130 -21 235 -3 44 -8 103 -10
130 -2 28 -7 91 -10 140 -3 50 -7 117 -10 150 -2 33 -7 110 -11 170 -3 61 -7
133 -9 160 -2 28 -6 106 -10 175 -3 69 -8 148 -10 175 -2 28 -7 104 -10 170
-4 66 -9 140 -11 165 -2 25 -6 196 -9 380 -2 184 -7 370 -9 412 -3 43 -8 153
-12 245 -3 93 -8 193 -9 223 -1 30 -6 154 -9 275 -11 382 -17 529 -22 565 -12
83 -15 123 -19 254 -6 155 -7 150 86 284 37 53 48 86 31 94 -11 4 -109 124
-122 149 -6 11 -13 77 -15 147 -9 267 -16 439 -20 502 -2 36 -7 254 -10 485
-6 520 -10 594 -40 825 -2 19 -7 63 -10 97 -3 34 -7 70 -9 80 -2 10 -12 59
-21 108 -9 50 -19 99 -21 110 -2 11 -33 124 -70 250 -37 127 -90 318 -120 426
-29 107 -63 222 -75 255 -41 111 -113 204 -185 239 -37 17 -83 7 -123 -29 -66
-59 -131 -267 -220 -701 -23 -110 -46 -216 -51 -235 -6 -19 -12 -47 -14 -62
-3 -15 -22 -94 -44 -175 -50 -182 -53 -201 -77 -393 -5 -35 -17 -173 -18 -197
-1 -20 -17 -15 -17 5 0 9 -11 52 -25 94 -13 42 -27 87 -29 100 -3 13 -17 64
-31 113 -45 159 -135 523 -135 550 0 14 16 67 37 118 65 165 51 235 -77 369
-89 93 -99 115 -129 293 -27 154 -33 236 -36 508 l-2 237 46 1 c25 0 64 3 86
5 22 2 58 6 80 8 22 2 44 5 48 5 5 1 7 63 5 138 l-3 137 -60 18 c-33 10 -90
25 -127 34 -38 9 -68 19 -69 23 -1 3 -2 103 -3 221 -3 258 -15 384 -48 492
-10 35 -13 37 -73 47 -78 14 -86 14 -82 -1z m-945 -3048 c33 -157 82 -415 82
-426 0 -6 -80 0 -125 10 -11 2 -35 5 -54 5 l-34 1 7 88 c4 48 8 101 10 117 2
17 7 62 10 100 4 39 9 86 11 105 2 19 7 60 10 90 4 30 11 77 16 104 5 27 9 51
10 55 2 10 25 -92 57 -249z m2087 113 c23 -93 25 -114 30 -308 l5 -185 -23 -1
c-12 0 -57 -2 -99 -3 -43 -2 -78 -1 -78 1 0 4 30 192 36 223 2 14 6 39 9 55
13 74 39 176 62 239 29 77 34 75 58 -21z m-1061 -473 c61 -93 92 -163 185
-415 98 -270 237 -767 306 -1100 2 -11 11 -55 20 -98 9 -43 15 -80 13 -83 -3
-2 -31 -6 -64 -9 -32 -2 -88 -7 -124 -10 -36 -3 -171 -8 -300 -11 -129 -3
-258 -7 -287 -8 -40 -1 -53 2 -56 14 -7 30 5 287 18 360 2 14 7 54 10 90 6 68
14 147 20 190 2 14 7 54 10 90 4 36 9 74 11 85 2 11 7 40 10 65 3 25 7 52 9
60 2 8 8 51 14 95 7 44 16 103 21 130 5 28 11 61 14 75 31 179 123 520 139
520 3 0 16 -18 31 -40z m1126 -447 c1 -16 3 -53 5 -83 2 -30 6 -118 10 -195 4
-77 8 -171 10 -209 5 -81 13 -264 20 -426 2 -63 7 -184 10 -268 6 -151 6 -154
-13 -147 -11 3 -29 7 -39 9 -44 8 -90 16 -113 21 -14 3 -49 9 -79 15 -30 5
-56 11 -57 13 -25 25 -42 1050 -21 1230 l9 67 129 0 129 0 0 -27z m-2029 -43
c2 -76 20 -287 34 -405 2 -22 7 -62 10 -90 6 -51 51 -370 59 -415 27 -152 47
-292 43 -296 -6 -6 -69 -7 -219 -4 l-98 2 -1 57 c-2 130 -15 457 -24 611 -4
79 -12 206 -20 356 -3 50 -7 119 -10 153 l-4 62 114 -3 c115 -3 115 -3 116
-28z"/>
<path d="M5901 18873 c-96 -84 -160 -205 -185 -351 -13 -74 -14 -405 -2 -539
10 -106 16 -165 21 -203 3 -19 7 -60 11 -90 3 -30 7 -64 9 -75 6 -43 17 -116
41 -270 33 -215 34 -216 39 -245 3 -14 7 -41 10 -60 3 -19 10 -60 15 -90 5
-30 12 -72 16 -94 3 -21 8 -48 10 -60 16 -82 36 -187 40 -216 21 -128 93 -301
155 -368 l30 -33 40 32 c99 78 128 186 104 388 -3 30 -8 58 -10 61 -5 8 -11
72 -20 220 -3 47 -7 108 -10 135 -2 28 -7 91 -11 140 -3 50 -7 111 -9 136 -2
25 -6 97 -10 160 -3 63 -8 139 -10 169 -4 58 -12 209 -20 375 -3 55 -7 143
-10 195 -2 52 -7 187 -11 299 -5 170 -9 211 -25 248 -27 62 -121 183 -143 183
-6 0 -36 -21 -65 -47z"/>
<path d="M11348 16355 c-2 -2 -21 -5 -43 -9 -143 -20 -274 -110 -333 -228 -56
-112 -97 -425 -95 -743 0 -185 23 -681 38 -845 6 -61 14 -169 20 -265 3 -44 8
-111 10 -150 9 -136 14 -221 20 -325 20 -403 65 -528 218 -606 l48 -25 28 63
c27 61 44 119 58 203 12 74 5 352 -12 490 -2 17 -7 64 -10 105 -3 41 -8 98
-10 125 -3 28 -7 82 -10 120 -3 39 -7 93 -10 120 -2 28 -7 86 -11 130 -3 44
-8 88 -10 99 -2 10 -6 53 -9 95 -3 42 -8 105 -11 141 -18 216 -7 451 23 505
14 24 89 -133 109 -226 8 -40 35 -205 59 -369 9 -58 18 -116 20 -130 2 -14 7
-47 11 -75 3 -27 8 -59 10 -70 3 -11 7 -36 10 -55 11 -77 46 -271 66 -370 26
-131 22 -115 38 -185 16 -70 13 -59 29 -115 7 -25 15 -54 17 -65 12 -60 89
-277 115 -323 48 -84 138 -125 184 -82 28 26 73 116 82 167 13 67 6 329 -11
418 -8 41 -17 159 -21 278 -9 269 -16 431 -20 461 -6 51 -15 202 -20 346 -13
333 -15 380 -20 465 -5 88 -9 132 -20 265 -11 125 -36 276 -56 336 -56 173
-181 294 -327 319 -44 7 -149 14 -154 10z"/>
<path d="M9990 16304 c-183 -48 -341 -256 -403 -529 -22 -98 -26 -122 -57
-340 -29 -210 -28 -200 -40 -300 -6 -49 -13 -101 -15 -115 -2 -14 -7 -53 -10
-87 -3 -34 -7 -70 -9 -80 -2 -10 -7 -54 -10 -98 -4 -44 -9 -96 -11 -115 -3
-19 -7 -66 -10 -105 -3 -38 -7 -99 -10 -135 -3 -36 -7 -101 -10 -145 -3 -44
-7 -90 -9 -102 -20 -101 -28 -483 -13 -600 8 -62 51 -230 62 -241 12 -12 151
19 192 44 44 25 81 78 107 151 20 57 26 101 31 224 5 117 11 209 20 285 3 27
10 85 15 129 5 44 12 109 16 145 3 36 8 73 9 82 2 9 7 49 11 90 4 40 8 80 9
88 1 8 5 44 9 80 12 106 22 191 31 250 2 14 6 43 9 65 3 22 8 60 11 85 8 64
42 268 66 388 21 107 59 226 77 244 25 25 82 -147 117 -352 18 -107 33 -205
40 -265 3 -27 8 -63 10 -80 7 -54 16 -139 20 -185 6 -73 15 -200 20 -270 5
-78 15 -371 20 -600 1 -91 6 -187 10 -215 3 -27 8 -66 11 -85 8 -65 45 -184
72 -233 31 -57 107 -139 150 -161 56 -29 138 -3 181 55 29 39 55 109 77 204
25 112 25 509 -1 672 -2 12 -7 61 -10 110 -4 48 -9 90 -10 93 -2 3 -6 41 -10
85 -4 44 -8 82 -10 85 -2 3 -6 37 -10 75 -4 39 -9 79 -11 90 -2 11 -9 58 -15
105 -16 124 -16 120 -44 300 -14 91 -27 181 -30 200 -3 19 -10 58 -15 85 -5
28 -12 66 -15 85 -3 19 -10 60 -16 90 -6 30 -12 66 -14 80 -8 71 -48 263 -66
319 -17 55 -53 130 -95 203 -17 29 -92 96 -126 114 -94 48 -203 62 -298 38z"/>
<path d="M4359 12093 c-3 -58 -1 -164 4 -176 4 -11 36 -14 158 -15 179 -2 232
-7 314 -29 138 -38 283 -141 319 -227 22 -54 35 -135 43 -276 9 -164 9 -4216
0 -4344 -11 -155 -25 -225 -60 -289 -40 -77 -95 -130 -171 -166 -121 -57 -208
-73 -426 -75 -91 -1 -169 -4 -175 -8 -8 -5 -11 -125 -6 -193 1 -7 896 -9 2669
-8 1467 1 2679 2 2693 2 14 1 26 7 26 14 1 20 13 142 18 168 2 13 6 56 10 94
3 39 8 84 10 100 2 17 7 50 9 75 13 125 18 167 22 190 2 14 6 54 10 90 3 36 8
79 10 95 2 17 6 55 9 85 3 30 8 71 11 90 3 19 7 58 9 85 6 62 15 142 20 175 2
14 6 55 10 91 3 36 8 76 10 90 2 13 6 55 10 92 3 37 7 82 9 100 9 66 16 124
21 177 4 30 8 71 11 90 3 19 7 62 10 95 3 33 8 63 10 66 7 12 -19 15 -125 14
l-104 0 -62 -185 c-214 -642 -437 -1014 -744 -1245 -144 -108 -342 -197 -516
-231 -183 -36 -242 -39 -750 -39 -658 0 -717 6 -825 85 -90 65 -117 130 -138
325 -9 94 -9 4257 1 4363 14 155 45 233 123 314 61 63 179 117 290 133 27 4
60 8 74 11 14 2 112 4 218 5 169 1 192 4 193 18 1 9 2 55 3 104 l1 87 -1627 0
c-1543 0 -1628 -1 -1629 -17z"/>
<path d="M9597 12103 c-2 -5 -4 -50 -3 -102 l1 -94 107 -18 c173 -29 283 -74
355 -144 53 -52 138 -198 269 -462 68 -138 124 -254 124 -256 0 -3 17 -43 39
-89 57 -123 139 -302 181 -398 21 -47 49 -110 63 -140 14 -30 75 -165 135
-300 148 -332 548 -1222 579 -1290 14 -30 42 -93 63 -140 21 -47 79 -177 130
-290 50 -113 98 -218 105 -235 7 -16 26 -59 43 -95 16 -36 39 -87 52 -115 39
-86 458 -1021 552 -1230 49 -110 102 -227 117 -260 15 -33 50 -109 76 -170 27
-60 52 -112 56 -115 4 -3 45 -5 91 -5 l83 0 30 60 c17 33 53 110 82 170 142
301 167 354 190 405 14 30 52 111 84 179 33 68 59 125 59 126 0 2 36 78 80
170 44 92 80 169 80 171 0 2 31 68 69 146 37 79 78 166 91 193 12 28 42 93 67
145 25 52 60 127 78 165 18 39 52 111 75 160 24 50 59 126 80 170 53 114 169
362 262 559 44 93 95 201 113 240 18 39 53 114 77 166 25 52 96 203 158 335
62 132 139 296 171 364 33 68 59 124 59 126 0 2 34 73 75 160 41 86 75 158 75
161 0 2 65 136 144 297 294 595 393 745 598 903 105 81 224 135 384 174 l42
10 -1 100 0 100 -1012 0 -1013 0 1 -105 1 -105 96 -1 c52 0 102 -2 110 -3 8
-2 46 -7 83 -11 86 -9 220 -45 283 -76 26 -13 69 -44 96 -68 150 -134 150
-334 -1 -701 -52 -127 -84 -201 -181 -415 -32 -71 -115 -251 -187 -405 -20
-41 -61 -131 -93 -200 -32 -69 -76 -163 -98 -210 -22 -47 -69 -148 -105 -225
-166 -359 -257 -554 -280 -605 -13 -30 -60 -129 -102 -220 -43 -91 -90 -193
-106 -227 -16 -35 -43 -93 -60 -130 -17 -38 -44 -95 -59 -128 -15 -33 -40 -87
-55 -119 l-27 -60 -17 35 c-9 19 -37 81 -63 139 -89 200 -390 876 -450 1010
-33 74 -69 153 -78 175 -10 22 -38 85 -63 140 -25 55 -183 411 -352 790 -169
380 -315 708 -325 730 -43 96 -140 328 -154 370 -14 40 -21 71 -30 139 -5 38
14 109 38 140 41 55 154 103 281 121 41 6 212 15 340 18 l70 2 2 103 2 102
-1464 0 c-805 0 -1466 -3 -1468 -7z"/>
<path d="M19210 12005 l0 -105 35 -1 c19 -1 38 -2 43 -3 4 -1 27 -6 52 -10
151 -26 278 -84 344 -157 81 -90 212 -338 431 -814 53 -114 746 -1656 755
-1680 5 -11 26 -58 48 -105 22 -47 54 -119 72 -160 18 -41 43 -97 55 -125 21
-46 173 -383 232 -515 13 -30 36 -80 50 -110 14 -30 33 -71 41 -90 13 -32 119
-268 179 -400 14 -30 62 -138 108 -240 85 -191 328 -732 372 -830 14 -30 52
-116 85 -190 100 -224 139 -304 149 -310 10 -7 167 -6 173 1 5 5 64 128 176
369 40 85 92 198 117 250 25 52 58 122 73 155 15 33 49 105 75 160 26 55 60
127 75 160 44 95 94 201 150 320 29 61 84 178 122 260 39 83 90 191 113 240
24 50 72 153 108 230 35 77 88 189 116 248 29 60 67 141 85 180 45 96 105 224
151 322 113 241 135 287 272 580 41 88 88 187 103 220 15 33 55 117 88 187 34
70 70 146 81 170 10 24 45 97 76 163 31 66 77 165 103 220 172 368 347 698
455 860 54 80 166 203 238 262 110 88 326 183 418 183 22 0 23 6 23 130 0 17
-1 41 -1 55 l-1 25 -1010 0 -1010 0 -1 -57 c-1 -61 2 -147 4 -149 1 -1 65 -4
142 -7 434 -19 643 -163 634 -437 -5 -149 -59 -315 -208 -643 -17 -37 -31 -69
-31 -71 0 -2 -23 -53 -51 -112 -28 -60 -58 -125 -66 -144 -9 -19 -40 -86 -70
-148 -29 -62 -53 -115 -53 -117 0 -2 -29 -65 -65 -140 -36 -76 -65 -138 -65
-140 0 -1 -23 -52 -51 -111 -46 -97 -195 -418 -269 -579 -15 -33 -51 -108 -79
-168 -28 -59 -51 -109 -51 -111 0 -2 -24 -55 -54 -117 -29 -63 -66 -141 -81
-174 -16 -33 -50 -107 -77 -165 -27 -58 -59 -125 -70 -150 -12 -25 -39 -85
-62 -135 -23 -49 -46 -101 -52 -115 -10 -23 -13 -20 -47 54 -21 43 -37 79 -37
81 0 2 -13 32 -29 67 -16 35 -50 110 -76 168 -26 58 -55 123 -65 145 -10 22
-46 103 -80 180 -34 77 -70 158 -80 180 -10 22 -37 83 -60 135 -23 52 -54 120
-67 150 -14 30 -70 156 -125 280 -55 124 -111 250 -125 280 -14 30 -40 89 -58
130 -27 63 -86 195 -227 510 -11 25 -31 70 -45 100 -26 57 -175 392 -198 445
-7 17 -23 53 -35 80 -68 150 -151 351 -165 397 -51 171 -18 273 107 331 77 35
114 43 293 63 17 1 92 3 168 4 l137 2 1 29 c0 16 0 52 0 79 0 28 0 61 0 75
l-1 25 -1465 0 -1465 0 0 -105z"/>
<path d="M5007 5294 c-1 -1 -48 -4 -104 -8 -185 -11 -394 -66 -548 -143 -218
-110 -417 -292 -541 -498 -91 -149 -135 -273 -164 -465 -9 -56 -6 -315 4 -360
9 -40 16 -73 20 -95 6 -33 52 -156 79 -215 70 -151 235 -355 387 -479 25 -20
47 -39 50 -42 13 -15 206 -143 305 -201 135 -79 276 -153 645 -339 317 -159
401 -207 530 -305 119 -91 193 -177 248 -290 74 -150 83 -274 31 -424 -41
-117 -165 -259 -286 -326 -244 -137 -603 -139 -910 -6 -254 109 -472 295 -638
542 -56 84 -165 296 -165 322 0 8 -4 18 -9 23 -13 14 -77 218 -96 306 -27 125
-21 119 -119 118 -55 -1 -86 -5 -88 -12 -3 -10 -2 -1596 1 -1663 1 -20 6 -21
86 -21 l86 0 30 57 c58 109 161 187 262 197 68 7 138 -11 352 -92 365 -136
488 -161 815 -159 239 1 407 29 602 101 83 30 229 104 303 153 183 122 366
319 470 504 60 107 119 281 131 385 3 31 8 59 10 63 5 9 6 257 1 283 -3 11 -8
43 -11 70 -24 167 -114 376 -228 528 -117 157 -320 324 -594 490 -140 84 -174
103 -574 303 -550 276 -646 333 -792 475 -121 120 -174 226 -177 363 -3 135
43 247 144 351 133 135 280 193 507 200 165 5 278 -16 428 -78 188 -77 391
-232 535 -408 130 -159 252 -432 287 -641 8 -50 15 -68 27 -69 23 -1 122 -1
154 0 l28 1 -6 228 c-6 250 -11 442 -21 842 -4 146 -7 300 -8 342 -1 42 -4 80
-8 84 -8 8 -136 12 -146 4 -4 -3 -15 -39 -26 -80 -24 -101 -62 -178 -96 -195
-30 -16 -89 -21 -136 -11 -35 7 -233 85 -303 120 -142 71 -328 128 -501 153
-51 7 -259 21 -263 17z"/>
<path d="M9367 5254 c-1 -1 -40 -4 -87 -7 -106 -8 -196 -22 -335 -51 -295 -63
-648 -239 -884 -441 -72 -62 -187 -172 -235 -225 -27 -30 -53 -57 -56 -60 -17
-13 -161 -213 -201 -280 -108 -179 -186 -365 -237 -565 -29 -116 -35 -144 -47
-230 -4 -22 -8 -51 -10 -65 -23 -136 -23 -471 0 -640 3 -19 8 -55 11 -80 3
-25 11 -73 19 -106 8 -34 16 -73 19 -85 10 -55 60 -210 93 -294 217 -553 652
-1002 1181 -1221 173 -72 416 -138 587 -159 28 -4 61 -8 75 -11 136 -23 605
-23 750 1 14 2 48 6 75 10 95 12 315 64 422 100 222 76 477 215 653 359 391
319 690 814 789 1306 20 101 19 92 40 265 9 79 7 441 -3 525 -7 52 -29 186
-40 240 -3 14 -8 39 -11 55 -4 17 -10 41 -14 55 -5 14 -15 45 -22 70 -75 259
-247 571 -428 775 -350 394 -756 625 -1266 719 -11 2 -45 7 -75 11 -30 4 -66
9 -80 11 -87 12 -175 16 -413 18 -147 1 -268 1 -270 0z m413 -279 c213 -29
395 -119 538 -266 128 -131 258 -376 325 -614 41 -146 62 -264 92 -515 26
-223 26 -1052 0 -1150 -2 -8 -7 -44 -10 -80 -6 -54 -30 -198 -49 -287 -85
-400 -282 -741 -521 -901 -92 -62 -161 -90 -300 -122 -116 -27 -377 -22 -490
9 -299 81 -508 286 -664 651 -81 189 -157 507 -177 740 -3 41 -8 77 -9 80 -7
11 -19 314 -19 475 0 166 11 442 19 484 2 12 7 54 10 94 3 39 8 79 10 87 2 8
7 35 10 60 9 67 44 241 55 276 6 17 12 40 14 51 11 52 71 216 116 309 151 319
380 526 661 599 103 27 278 36 389 20z"/>
<path d="M21874 5191 c-2 -2 -4 -44 -4 -93 l0 -88 123 -1 c179 -1 223 -8 311
-49 66 -32 136 -97 154 -145 6 -16 16 -61 21 -100 12 -85 9 -3423 -3 -3475
-12 -54 -34 -90 -87 -141 -82 -80 -182 -105 -402 -104 l-118 1 3 -90 3 -91
1125 0 c1004 0 1307 4 1390 19 14 3 48 7 75 11 183 23 543 125 727 206 345
152 631 390 824 684 177 272 311 647 340 955 3 36 7 81 10 100 5 47 5 352 -1
415 -4 50 -12 119 -22 185 -41 298 -197 701 -350 906 -13 17 -23 34 -23 37 0
4 -8 17 -19 29 -216 260 -329 360 -574 507 -228 138 -548 241 -887 286 -25 3
-61 8 -80 10 -47 7 -113 12 -245 21 -116 7 -2283 12 -2291 5z m2146 -326 c42
-6 233 -43 255 -50 6 -1 21 -6 35 -11 46 -14 174 -85 229 -126 193 -145 356
-395 454 -696 26 -77 48 -151 51 -164 2 -12 11 -57 19 -98 15 -72 18 -88 32
-175 10 -68 19 -151 31 -295 6 -75 6 -501 -1 -575 -3 -33 -7 -87 -10 -120 -8
-90 -15 -157 -20 -185 -3 -14 -8 -45 -11 -70 -3 -25 -8 -48 -10 -51 -2 -4 -6
-24 -10 -45 -3 -22 -14 -75 -26 -119 -116 -463 -350 -779 -664 -899 -39 -14
-81 -28 -92 -31 -12 -2 -25 -6 -30 -8 -4 -3 -27 -8 -52 -11 -25 -3 -67 -10
-95 -14 -82 -13 -274 -6 -335 12 -55 16 -108 54 -127 91 -6 11 -14 45 -19 75
-4 30 -8 849 -8 1819 l-1 1764 180 -7 c99 -3 200 -8 225 -11z"/>
</g>
</svg>
